<svg xmlns="http://www.w3.org/2000/svg" xmlns:xlink="http://www.w3.org/1999/xlink" xmlns:lucid="lucid" width="1780" height="1332"><g transform="translate(-80 -120)" lucid:page-tab-id="0_0"><path d="M360 326c0-3.3 2.7-6 6-6h268c3.3 0 6 2.7 6 6v567c0 3.3-2.7 6-6 6H366c-3.3 0-6-2.7-6-6z" fill="#fff"/><path d="M360 326c0-3.3 2.7-6 6-6h268c3.3 0 6 2.7 6 6v567c0 3.3-2.7 6-6 6H366c-3.3 0-6-2.7-6-6zM360 360h280M500 360v539" stroke="#5e5e5e" stroke-width="3" fill="none"/><use xlink:href="#a" transform="matrix(1,0,0,1,370,320) translate(87.29012345679013 24.88888888888889)"/><use xlink:href="#b" transform="matrix(1,0,0,1,365,362.5) translate(0 17.099999999999998)"/><use xlink:href="#c" transform="matrix(1,0,0,1,505,362.5) translate(0 17.099999999999998)"/><use xlink:href="#d" transform="matrix(1,0,0,1,365,394.5) translate(0 21.88888888888889)"/><use xlink:href="#e" transform="matrix(1,0,0,1,505,394.5) translate(0 21.88888888888889)"/><use xlink:href="#f" transform="matrix(1,0,0,1,365,433.5) translate(0 21.88888888888889)"/><use xlink:href="#e" transform="matrix(1,0,0,1,505,433.5) translate(0 21.88888888888889)"/><use xlink:href="#g" transform="matrix(1,0,0,1,365,472.5) translate(0 21.88888888888889)"/><use xlink:href="#e" transform="matrix(1,0,0,1,505,472.5) translate(0 21.88888888888889)"/><use xlink:href="#h" transform="matrix(1,0,0,1,365,511.5) translate(0 21.04444444444444)"/><use xlink:href="#e" transform="matrix(1,0,0,1,505,511.5) translate(0 21.88888888888889)"/><use xlink:href="#i" transform="matrix(1,0,0,1,365,550.5) translate(0 21.04444444444444)"/><use xlink:href="#e" transform="matrix(1,0,0,1,505,550.5) translate(0 21.88888888888889)"/><use xlink:href="#j" transform="matrix(1,0,0,1,365,589.5) translate(0 21.04444444444444)"/><use xlink:href="#e" transform="matrix(1,0,0,1,505,589.5) translate(0 21.88888888888889)"/><use xlink:href="#k" transform="matrix(1,0,0,1,365,628.5) translate(0 21.04444444444444)"/><use xlink:href="#e" transform="matrix(1,0,0,1,505,628.5) translate(0 21.88888888888889)"/><use xlink:href="#l" transform="matrix(1,0,0,1,365,667.5) translate(0 21.04444444444444)"/><use xlink:href="#e" transform="matrix(1,0,0,1,505,667.5) translate(0 21.88888888888889)"/><use xlink:href="#m" transform="matrix(1,0,0,1,365,706.5) translate(0 21.04444444444444)"/><use xlink:href="#e" transform="matrix(1,0,0,1,505,706.5) translate(0 21.88888888888889)"/><use xlink:href="#n" transform="matrix(1,0,0,1,365,745.5) translate(0 21.04444444444444)"/><use xlink:href="#e" transform="matrix(1,0,0,1,505,745.5) translate(0 21.88888888888889)"/><use xlink:href="#o" transform="matrix(1,0,0,1,365,784.5) translate(0 21.04444444444444)"/><use xlink:href="#e" transform="matrix(1,0,0,1,505,784.5) translate(0 21.88888888888889)"/><use xlink:href="#p" transform="matrix(1,0,0,1,365,823.5) translate(0 21.04444444444444)"/><use xlink:href="#e" transform="matrix(1,0,0,1,505,823.5) translate(0 21.88888888888889)"/><use xlink:href="#q" transform="matrix(1,0,0,1,365,862.5) translate(0 21.04444444444444)"/><use xlink:href="#e" transform="matrix(1,0,0,1,505,862.5) translate(0 21.88888888888889)"/><path d="M100 146c0-3.3 2.7-6 6-6h248c3.3 0 6 2.7 6 6v102c0 3.3-2.7 6-6 6H106c-3.3 0-6-2.7-6-6z" fill="#fff"/><path d="M100 146c0-3.3 2.7-6 6-6h248c3.3 0 6 2.7 6 6v102c0 3.3-2.7 6-6 6H106c-3.3 0-6-2.7-6-6zM100 180h260M230 180v74" stroke="#5e5e5e" stroke-width="3" fill="none"/><use xlink:href="#r" transform="matrix(1,0,0,1,110,140) translate(55.679012345679 24.444444444444443)"/><use xlink:href="#s" transform="matrix(1,0,0,1,105,182.5) translate(0 20.444444444444443)"/><use xlink:href="#t" transform="matrix(1,0,0,1,235,182.5) translate(0 20.444444444444443)"/><use xlink:href="#u" transform="matrix(1,0,0,1,105,219.5) translate(0 20.444444444444443)"/><use xlink:href="#v" transform="matrix(1,0,0,1,235,219.5) translate(0 20.444444444444443)"/><path d="M230 275.5v169c0 3.3 2.7 6 6 6h103.68" stroke="#5e5e5e" stroke-width="2" fill="none"/><path d="M220 275.5h20M230 255.5v20M358.05 460.5l-20-10 20-10M358.05 450.5h-20" stroke="#5e5e5e" stroke-width="2" fill="#fff"/><path d="M820 466c0-3.3 2.7-6 6-6h268c3.3 0 6 2.7 6 6v592c0 3.3-2.7 6-6 6H826c-3.3 0-6-2.7-6-6z" fill="#fff"/><path d="M820 466c0-3.3 2.7-6 6-6h268c3.3 0 6 2.7 6 6v592c0 3.3-2.7 6-6 6H826c-3.3 0-6-2.7-6-6zM820 500h280M960 500v564" stroke="#5e5e5e" stroke-width="3" fill="none"/><use xlink:href="#w" transform="matrix(1,0,0,1,830,460) translate(40.09876543209876 24.88888888888889)"/><use xlink:href="#x" transform="matrix(1,0,0,1,825,502.5) translate(0 17.1)"/><use xlink:href="#y" transform="matrix(1,0,0,1,965,502.5) translate(0 17.1)"/><use xlink:href="#z" transform="matrix(1,0,0,1,825,534.5) translate(0 17.1)"/><use xlink:href="#y" transform="matrix(1,0,0,1,965,534.5) translate(0 17.1)"/><use xlink:href="#A" transform="matrix(1,0,0,1,825,566.5) translate(0 21.88888888888889)"/><use xlink:href="#B" transform="matrix(1,0,0,1,965,566.5) translate(0 21.88888888888889)"/><use xlink:href="#C" transform="matrix(1,0,0,1,825,605.5) translate(0 21.88888888888889)"/><use xlink:href="#B" transform="matrix(1,0,0,1,965,605.5) translate(0 21.88888888888889)"/><use xlink:href="#D" transform="matrix(1,0,0,1,825,644.5) translate(0 21.88888888888889)"/><use xlink:href="#B" transform="matrix(1,0,0,1,965,644.5) translate(0 21.88888888888889)"/><use xlink:href="#E" transform="matrix(1,0,0,1,825,683.5) translate(0 21.044444444444444)"/><use xlink:href="#B" transform="matrix(1,0,0,1,965,683.5) translate(0 21.88888888888889)"/><use xlink:href="#F" transform="matrix(1,0,0,1,825,722.5) translate(0 21.044444444444444)"/><use xlink:href="#B" transform="matrix(1,0,0,1,965,722.5) translate(0 21.88888888888889)"/><use xlink:href="#G" transform="matrix(1,0,0,1,825,761.5) translate(0 21.044444444444444)"/><use xlink:href="#B" transform="matrix(1,0,0,1,965,761.5) translate(0 21.88888888888889)"/><use xlink:href="#H" transform="matrix(1,0,0,1,825,800.5) translate(0 21.044444444444444)"/><use xlink:href="#B" transform="matrix(1,0,0,1,965,800.5) translate(0 21.88888888888889)"/><use xlink:href="#I" transform="matrix(1,0,0,1,825,839.5) translate(0 21.044444444444444)"/><use xlink:href="#B" transform="matrix(1,0,0,1,965,839.5) translate(0 21.88888888888889)"/><use xlink:href="#J" transform="matrix(1,0,0,1,825,878.5) translate(0 21.044444444444444)"/><use xlink:href="#B" transform="matrix(1,0,0,1,965,878.5) translate(0 21.88888888888889)"/><use xlink:href="#K" transform="matrix(1,0,0,1,825,917.5) translate(0 21.044444444444444)"/><use xlink:href="#B" transform="matrix(1,0,0,1,965,917.5) translate(0 21.88888888888889)"/><use xlink:href="#L" transform="matrix(1,0,0,1,825,956.5) translate(0 21.044444444444444)"/><use xlink:href="#B" transform="matrix(1,0,0,1,965,956.5) translate(0 21.88888888888889)"/><use xlink:href="#M" transform="matrix(1,0,0,1,825,995.5) translate(0 21.044444444444444)"/><use xlink:href="#B" transform="matrix(1,0,0,1,965,995.5) translate(0 21.88888888888889)"/><use xlink:href="#N" transform="matrix(1,0,0,1,825,1034.5) translate(0 17.544444444444444)"/><use xlink:href="#B" transform="matrix(1,0,0,1,965,1034.5) translate(0 19.555555555555557)"/><path d="M661.5 606.5H724c3.3 0 6 2.7 6 6v43c0 3.3 2.7 6 6 6h63.68" stroke="#5e5e5e" stroke-width="2" fill="none"/><path d="M661.5 616.5v-20M641.5 606.5h20M818.05 671.5l-20-10 20-10M818.05 661.5h-20" stroke="#5e5e5e" stroke-width="2" fill="#fff"/><path d="M1200 166c0-3.3 2.7-6 6-6h248c3.3 0 6 2.7 6 6v331c0 3.3-2.7 6-6 6h-248c-3.3 0-6-2.7-6-6z" fill="#fff"/><path d="M1200 166c0-3.3 2.7-6 6-6h248c3.3 0 6 2.7 6 6v331c0 3.3-2.7 6-6 6h-248c-3.3 0-6-2.7-6-6zM1200 200h260M1330 200v303" stroke="#5e5e5e" stroke-width="3" fill="none"/><use xlink:href="#O" transform="matrix(1,0,0,1,1210,160) translate(87.96296296296296 24.444444444444443)"/><use xlink:href="#s" transform="matrix(1,0,0,1,1205,202.5) translate(0 20.444444444444443)"/><use xlink:href="#t" transform="matrix(1,0,0,1,1335,202.5) translate(0 20.444444444444443)"/><use xlink:href="#P" transform="matrix(1,0,0,1,1205,239.5) translate(0 20.444444444444443)"/><use xlink:href="#v" transform="matrix(1,0,0,1,1335,239.5) translate(0 20.444444444444443)"/><use xlink:href="#Q" transform="matrix(1,0,0,1,1205,276.5) translate(0 20.444444444444443)"/><use xlink:href="#R" transform="matrix(1,0,0,1,1335,276.5) translate(0 20.444444444444443)"/><use xlink:href="#S" transform="matrix(1,0,0,1,1205,313.5) translate(0 17.1)"/><use xlink:href="#T" transform="matrix(1,0,0,1,1335,313.5) translate(0 17.1)"/><use xlink:href="#U" transform="matrix(1,0,0,1,1205,345.5) translate(0 17.1)"/><use xlink:href="#T" transform="matrix(1,0,0,1,1335,345.5) translate(0 17.1)"/><use xlink:href="#V" transform="matrix(1,0,0,1,1205,377.5) translate(0 17.1)"/><use xlink:href="#T" transform="matrix(1,0,0,1,1335,377.5) translate(0 17.1)"/><use xlink:href="#W" transform="matrix(1,0,0,1,1205,409.5) translate(0 17.1)"/><use xlink:href="#T" transform="matrix(1,0,0,1,1335,409.5) translate(0 17.1)"/><use xlink:href="#X" transform="matrix(1,0,0,1,1205,441.5) translate(0 17.1)"/><use xlink:href="#T" transform="matrix(1,0,0,1,1335,441.5) translate(0 17.1)"/><use xlink:href="#Y" transform="matrix(1,0,0,1,1205,473.5) translate(0 17.1)"/><use xlink:href="#T" transform="matrix(1,0,0,1,1335,473.5) translate(0 17.1)"/><path d="M1560 246c0-3.3 2.7-6 6-6h268c3.3 0 6 2.7 6 6v102c0 3.3-2.7 6-6 6h-268c-3.3 0-6-2.7-6-6z" fill="#fff"/><path d="M1560 246c0-3.3 2.7-6 6-6h268c3.3 0 6 2.7 6 6v102c0 3.3-2.7 6-6 6h-268c-3.3 0-6-2.7-6-6zM1560 280h280M1700 280v74" stroke="#5e5e5e" stroke-width="3" fill="none"/><use xlink:href="#Z" transform="matrix(1,0,0,1,1570,240) translate(59.53703703703704 24.444444444444443)"/><use xlink:href="#s" transform="matrix(1,0,0,1,1565,282.5) translate(0 20.444444444444443)"/><use xlink:href="#t" transform="matrix(1,0,0,1,1705,282.5) translate(0 20.444444444444443)"/><use xlink:href="#u" transform="matrix(1,0,0,1,1565,319.5) translate(0 20.444444444444443)"/><use xlink:href="#v" transform="matrix(1,0,0,1,1705,319.5) translate(0 20.444444444444443)"/><path d="M1420 546c0-3.3 2.7-6 6-6h268c3.3 0 6 2.7 6 6v287c0 3.3-2.7 6-6 6h-268c-3.3 0-6-2.7-6-6z" fill="#fff"/><path d="M1420 546c0-3.3 2.7-6 6-6h268c3.3 0 6 2.7 6 6v287c0 3.3-2.7 6-6 6h-268c-3.3 0-6-2.7-6-6zM1420 580h280M1560 580v259" stroke="#5e5e5e" stroke-width="3" fill="none"/><use xlink:href="#aa" transform="matrix(1,0,0,1,1430,540) translate(66.5432098765432 24.444444444444443)"/><use xlink:href="#s" transform="matrix(1,0,0,1,1425,582.5) translate(0 20.444444444444443)"/><use xlink:href="#t" transform="matrix(1,0,0,1,1565,582.5) translate(0 20.444444444444443)"/><use xlink:href="#ab" transform="matrix(1,0,0,1,1425,619.5) translate(0 20.444444444444443)"/><use xlink:href="#v" transform="matrix(1,0,0,1,1565,619.5) translate(0 20.444444444444443)"/><use xlink:href="#ac" transform="matrix(1,0,0,1,1425,656.5) translate(0 20.444444444444443)"/><use xlink:href="#v" transform="matrix(1,0,0,1,1565,656.5) translate(0 20.444444444444443)"/><use xlink:href="#ad" transform="matrix(1,0,0,1,1425,693.5) translate(0 20.444444444444443)"/><use xlink:href="#v" transform="matrix(1,0,0,1,1565,693.5) translate(0 20.444444444444443)"/><use xlink:href="#ae" transform="matrix(1,0,0,1,1425,730.5) translate(0 20.444444444444443)"/><use xlink:href="#v" transform="matrix(1,0,0,1,1565,730.5) translate(0 20.444444444444443)"/><use xlink:href="#af" transform="matrix(1,0,0,1,1425,767.5) translate(0 20.444444444444443)"/><use xlink:href="#v" transform="matrix(1,0,0,1,1565,767.5) translate(0 20.444444444444443)"/><use xlink:href="#ag" transform="matrix(1,0,0,1,1425,804.5) translate(0 20.444444444444443)"/><use xlink:href="#v" transform="matrix(1,0,0,1,1565,804.5) translate(0 20.444444444444443)"/><path d="M1330 524.5v67.02c0 3.32 2.7 6 6 6h63.68" stroke="#5e5e5e" stroke-width="2" fill="none"/><path d="M1320 524.5h20M1330 504.5v20M1418.05 607.52l-20-10 20-10M1418.05 597.52h-20" stroke="#5e5e5e" stroke-width="2" fill="#fff"/><path d="M1700 375.5v14c0 3.3 2.7 6 6 6h29.5c3.3 0 6 2.7 6 6v190.02c0 3.32-2.7 6-6 6h-15.18" stroke="#5e5e5e" stroke-width="2" fill="none"/><path d="M1690 375.5h20M1700 355.5v20M1701.95 587.52l20 10-20 10M1701.95 597.52h20" stroke="#5e5e5e" stroke-width="2" fill="#fff"/><path d="M240 1186c0-3.3 2.7-6 6-6h248c3.3 0 6 2.7 6 6v102c0 3.3-2.7 6-6 6H246c-3.3 0-6-2.7-6-6z" fill="#fff"/><path d="M240 1186c0-3.3 2.7-6 6-6h248c3.3 0 6 2.7 6 6v102c0 3.3-2.7 6-6 6H246c-3.3 0-6-2.7-6-6zM240 1220h260M370 1220v74" stroke="#5e5e5e" stroke-width="3" fill="none"/><use xlink:href="#ah" transform="matrix(1,0,0,1,250,1180) translate(88.58024691358025 24.444444444444443)"/><use xlink:href="#s" transform="matrix(1,0,0,1,245,1222.5) translate(0 20.444444444444443)"/><use xlink:href="#t" transform="matrix(1,0,0,1,375,1222.5) translate(0 20.444444444444443)"/><use xlink:href="#ai" transform="matrix(1,0,0,1,245,1259.5) translate(0 20.444444444444443)"/><use xlink:href="#v" transform="matrix(1,0,0,1,375,1259.5) translate(0 20.444444444444443)"/><path d="M660 1186c0-3.3 2.7-6 6-6h228c3.3 0 6 2.7 6 6v240c0 3.3-2.7 6-6 6H666c-3.3 0-6-2.7-6-6z" fill="#fff"/><path d="M660 1186c0-3.3 2.7-6 6-6h228c3.3 0 6 2.7 6 6v240c0 3.3-2.7 6-6 6H666c-3.3 0-6-2.7-6-6zM660 1220h240M780 1220v212" stroke="#5e5e5e" stroke-width="3" fill="none"/><use xlink:href="#aj" transform="matrix(1,0,0,1,670,1180) translate(47.16049382716049 24.444444444444443)"/><use xlink:href="#s" transform="matrix(1,0,0,1,665,1222.5) translate(0 20.444444444444443)"/><use xlink:href="#t" transform="matrix(1,0,0,1,785,1222.5) translate(0 20.444444444444443)"/><use xlink:href="#ak" transform="matrix(1,0,0,1,665,1259.5) translate(0 17.1)"/><use xlink:href="#al" transform="matrix(1,0,0,1,785,1259.5) translate(0 17.1)"/><use xlink:href="#am" transform="matrix(1,0,0,1,665,1291.5) translate(0 20.444444444444443)"/><use xlink:href="#R" transform="matrix(1,0,0,1,785,1291.5) translate(0 20.444444444444443)"/><use xlink:href="#an" transform="matrix(1,0,0,1,665,1328.5) translate(0 20.444444444444443)"/><use xlink:href="#t" transform="matrix(1,0,0,1,785,1328.5) translate(0 20.444444444444443)"/><use xlink:href="#ao" transform="matrix(1,0,0,1,665,1365.5) translate(0 20.444444444444443)"/><use xlink:href="#t" transform="matrix(1,0,0,1,785,1365.5) translate(0 20.444444444444443)"/><use xlink:href="#ap" transform="matrix(1,0,0,1,665,1402.5) translate(0 17.1)"/><use xlink:href="#T" transform="matrix(1,0,0,1,785,1402.5) translate(0 17.1)"/><path d="M521.5 1238.52h118.18" stroke="#5e5e5e" stroke-width="2" fill="none"/><path d="M521.5 1248.52v-20M501.5 1238.52h20M658.05 1248.52l-20-10 20-10M658.05 1238.52h-20" stroke="#5e5e5e" stroke-width="2" fill="#fff"/><defs><path fill="#333" d="M33 0v-248h34V0H33" id="aq"/><path fill="#333" d="M210-169c-67 3-38 105-44 169h-31v-121c0-29-5-50-35-48C34-165 62-65 56 0H25l-1-190h30c1 10-1 24 2 32 10-44 99-50 107 0 11-21 27-35 58-36 85-2 47 119 55 194h-31v-121c0-29-5-49-35-48" id="ar"/><path fill="#333" d="M100-194c63 0 86 42 84 106H49c0 40 14 67 53 68 26 1 43-12 49-29l28 8c-11 28-37 45-77 45C44 4 14-33 15-96c1-61 26-98 85-98zm52 81c6-60-76-77-97-28-3 7-6 17-6 28h103" id="as"/><path fill="#333" d="M117-194c89-4 53 116 60 194h-32v-121c0-31-8-49-39-48C34-167 62-67 57 0H25l-1-190h30c1 10-1 24 2 32 11-22 29-35 61-36" id="at"/><path fill="#333" d="M24-231v-30h32v30H24zM24 0v-190h32V0H24" id="au"/><path fill="#333" d="M96-169c-40 0-48 33-48 73s9 75 48 75c24 0 41-14 43-38l32 2c-6 37-31 61-74 61-59 0-76-41-82-99-10-93 101-131 147-64 4 7 5 14 7 22l-32 3c-4-21-16-35-41-35" id="av"/><path fill="#333" d="M141-36C126-15 110 5 73 4 37 3 15-17 15-53c-1-64 63-63 125-63 3-35-9-54-41-54-24 1-41 7-42 31l-33-3c5-37 33-52 76-52 45 0 72 20 72 64v82c-1 20 7 32 28 27v20c-31 9-61-2-59-35zM48-53c0 20 12 33 32 33 41-3 63-29 60-74-43 2-92-5-92 41" id="aw"/><g id="a"><use transform="matrix(0.06790123456790122,0,0,0.06790123456790122,0,0)" xlink:href="#aq"/><use transform="matrix(0.06790123456790122,0,0,0.06790123456790122,6.790123456790122,0)" xlink:href="#ar"/><use transform="matrix(0.06790123456790122,0,0,0.06790123456790122,27.092592592592588,0)" xlink:href="#as"/><use transform="matrix(0.06790123456790122,0,0,0.06790123456790122,40.672839506172835,0)" xlink:href="#at"/><use transform="matrix(0.06790123456790122,0,0,0.06790123456790122,54.253086419753075,0)" xlink:href="#au"/><use transform="matrix(0.06790123456790122,0,0,0.06790123456790122,59.61728395061727,0)" xlink:href="#av"/><use transform="matrix(0.06790123456790122,0,0,0.06790123456790122,71.83950617283949,0)" xlink:href="#aw"/></g><path d="M24-231v-30h32v30H24zM24 0v-190h32V0H24" id="ax"/><path d="M85-194c31 0 48 13 60 33l-1-100h32l1 261h-30c-2-10 0-23-3-31C134-8 116 4 85 4 32 4 16-35 15-94c0-66 23-100 70-100zm9 24c-40 0-46 34-46 75 0 40 6 74 45 74 42 0 51-32 51-76 0-42-9-74-50-73" id="ay"/><g id="b"><use transform="matrix(0.04999999999999998,0,0,0.04999999999999998,0,0)" xlink:href="#ax"/><use transform="matrix(0.04999999999999998,0,0,0.04999999999999998,3.9499999999999984,0)" xlink:href="#ay"/></g><path d="M117-194c89-4 53 116 60 194h-32v-121c0-31-8-49-39-48C34-167 62-67 57 0H25l-1-190h30c1 10-1 24 2 32 11-22 29-35 61-36" id="az"/><path d="M59-47c-2 24 18 29 38 22v24C64 9 27 4 27-40v-127H5v-23h24l9-43h21v43h35v23H59v120" id="aA"/><path d="M100-194c63 0 86 42 84 106H49c0 40 14 67 53 68 26 1 43-12 49-29l28 8c-11 28-37 45-77 45C44 4 14-33 15-96c1-61 26-98 85-98zm52 81c6-60-76-77-97-28-3 7-6 17-6 28h103" id="aB"/><path d="M177-190C167-65 218 103 67 71c-23-6-38-20-44-43l32-5c15 47 100 32 89-28v-30C133-14 115 1 83 1 29 1 15-40 15-95c0-56 16-97 71-98 29-1 48 16 59 35 1-10 0-23 2-32h30zM94-22c36 0 50-32 50-73 0-42-14-75-50-75-39 0-46 34-46 75s6 73 46 73" id="aC"/><path d="M114-163C36-179 61-72 57 0H25l-1-190h30c1 12-1 29 2 39 6-27 23-49 58-41v29" id="aD"/><g id="c"><use transform="matrix(0.04999999999999998,0,0,0.04999999999999998,0,0)" xlink:href="#ax"/><use transform="matrix(0.04999999999999998,0,0,0.04999999999999998,3.9499999999999984,0)" xlink:href="#az"/><use transform="matrix(0.04999999999999998,0,0,0.04999999999999998,13.949999999999996,0)" xlink:href="#aA"/><use transform="matrix(0.04999999999999998,0,0,0.04999999999999998,18.949999999999996,0)" xlink:href="#aB"/><use transform="matrix(0.04999999999999998,0,0,0.04999999999999998,28.94999999999999,0)" xlink:href="#aC"/><use transform="matrix(0.04999999999999998,0,0,0.04999999999999998,38.94999999999999,0)" xlink:href="#aB"/><use transform="matrix(0.04999999999999998,0,0,0.04999999999999998,48.94999999999999,0)" xlink:href="#aD"/></g><path fill="#333" d="M100-194c62-1 85 37 85 99 1 63-27 99-86 99S16-35 15-95c0-66 28-99 85-99zM99-20c44 1 53-31 53-75 0-43-8-75-51-75s-53 32-53 75 10 74 51 75" id="aE"/><path fill="#333" d="M24-231v-30h32v30H24zM-9 49c24 4 33-6 33-30v-209h32V24c2 40-23 58-65 49V49" id="aF"/><path fill="#333" d="M85-194c31 0 48 13 60 33l-1-100h32l1 261h-30c-2-10 0-23-3-31C134-8 116 4 85 4 32 4 16-35 15-94c0-66 23-100 70-100zm9 24c-40 0-46 34-46 75 0 40 6 74 45 74 42 0 51-32 51-76 0-42-9-74-50-73" id="aG"/><g id="d"><use transform="matrix(0.06790123456790122,0,0,0.06790123456790122,0,0)" xlink:href="#at"/><use transform="matrix(0.06790123456790122,0,0,0.06790123456790122,13.580246913580243,0)" xlink:href="#aE"/><use transform="matrix(0.06790123456790122,0,0,0.06790123456790122,27.160493827160487,0)" xlink:href="#ar"/><use transform="matrix(0.06790123456790122,0,0,0.06790123456790122,47.46296296296295,0)" xlink:href="#aF"/><use transform="matrix(0.06790123456790122,0,0,0.06790123456790122,52.827160493827144,0)" xlink:href="#as"/><use transform="matrix(0.06790123456790122,0,0,0.06790123456790122,66.40740740740739,0)" xlink:href="#aG"/></g><path fill="#333" d="M108 0H70L1-190h34L89-25l56-165h34" id="aH"/><path fill="#333" d="M114-163C36-179 61-72 57 0H25l-1-190h30c1 12-1 29 2 39 6-27 23-49 58-41v29" id="aI"/><path fill="#333" d="M106-169C34-169 62-67 57 0H25v-261h32l-1 103c12-21 28-36 61-36 89 0 53 116 60 194h-32v-121c2-32-8-49-39-48" id="aJ"/><path fill="#333" d="M87 75C49 33 22-17 22-94c0-76 28-126 65-167h31c-38 41-64 92-64 168S80 34 118 75H87" id="aK"/><path fill="#333" d="M54-142c48-35 137-8 131 61C196 18 31 33 14-55l32-4c7 23 22 37 52 37 35-1 51-22 54-58 4-55-73-65-99-34H22l8-134h141v27H59" id="aL"/><path fill="#333" d="M101-251c68 0 85 55 85 127S166 4 100 4C33 4 14-52 14-124c0-73 17-127 87-127zm-1 229c47 0 54-49 54-102s-4-102-53-102c-51 0-55 48-55 102 0 53 5 102 54 102" id="aM"/><path fill="#333" d="M33-261c38 41 65 92 65 168S71 34 33 75H2C39 34 66-17 66-93S39-220 2-261h31" id="aN"/><g id="e"><use transform="matrix(0.06790123456790122,0,0,0.06790123456790122,0,0)" xlink:href="#aH"/><use transform="matrix(0.06790123456790122,0,0,0.06790123456790122,12.22222222222222,0)" xlink:href="#aw"/><use transform="matrix(0.06790123456790122,0,0,0.06790123456790122,25.80246913580246,0)" xlink:href="#aI"/><use transform="matrix(0.06790123456790122,0,0,0.06790123456790122,33.88271604938271,0)" xlink:href="#av"/><use transform="matrix(0.06790123456790122,0,0,0.06790123456790122,46.10493827160493,0)" xlink:href="#aJ"/><use transform="matrix(0.06790123456790122,0,0,0.06790123456790122,59.685185185185176,0)" xlink:href="#aw"/><use transform="matrix(0.06790123456790122,0,0,0.06790123456790122,73.26543209876542,0)" xlink:href="#aI"/><use transform="matrix(0.06790123456790122,0,0,0.06790123456790122,81.34567901234566,0)" xlink:href="#aK"/><use transform="matrix(0.06790123456790122,0,0,0.06790123456790122,89.42592592592591,0)" xlink:href="#aL"/><use transform="matrix(0.06790123456790122,0,0,0.06790123456790122,103.00617283950614,0)" xlink:href="#aM"/><use transform="matrix(0.06790123456790122,0,0,0.06790123456790122,116.58641975308637,0)" xlink:href="#aN"/></g><path fill="#333" d="M177-190C167-65 218 103 67 71c-23-6-38-20-44-43l32-5c15 47 100 32 89-28v-30C133-14 115 1 83 1 29 1 15-40 15-95c0-56 16-97 71-98 29-1 48 16 59 35 1-10 0-23 2-32h30zM94-22c36 0 50-32 50-73 0-42-14-75-50-75-39 0-46 34-46 75s6 73 46 73" id="aO"/><g id="f"><use transform="matrix(0.06790123456790122,0,0,0.06790123456790122,0,0)" xlink:href="#aO"/><use transform="matrix(0.06790123456790122,0,0,0.06790123456790122,13.580246913580243,0)" xlink:href="#as"/><use transform="matrix(0.06790123456790122,0,0,0.06790123456790122,27.160493827160487,0)" xlink:href="#at"/><use transform="matrix(0.06790123456790122,0,0,0.06790123456790122,40.74074074074073,0)" xlink:href="#aF"/><use transform="matrix(0.06790123456790122,0,0,0.06790123456790122,46.10493827160493,0)" xlink:href="#as"/><use transform="matrix(0.06790123456790122,0,0,0.06790123456790122,59.685185185185176,0)" xlink:href="#aG"/></g><path fill="#333" d="M59-47c-2 24 18 29 38 22v24C64 9 27 4 27-40v-127H5v-23h24l9-43h21v43h35v23H59v120" id="aP"/><g id="g"><use transform="matrix(0.06790123456790122,0,0,0.06790123456790122,0,0)" xlink:href="#aG"/><use transform="matrix(0.06790123456790122,0,0,0.06790123456790122,13.580246913580243,0)" xlink:href="#aw"/><use transform="matrix(0.06790123456790122,0,0,0.06790123456790122,27.160493827160487,0)" xlink:href="#aP"/><use transform="matrix(0.06790123456790122,0,0,0.06790123456790122,33.950617283950606,0)" xlink:href="#aF"/><use transform="matrix(0.06790123456790122,0,0,0.06790123456790122,39.3148148148148,0)" xlink:href="#as"/><use transform="matrix(0.06790123456790122,0,0,0.06790123456790122,52.89506172839505,0)" xlink:href="#aG"/></g><path d="M141-36C126-15 110 5 73 4 37 3 15-17 15-53c-1-64 63-63 125-63 3-35-9-54-41-54-24 1-41 7-42 31l-33-3c5-37 33-52 76-52 45 0 72 20 72 64v82c-1 20 7 32 28 27v20c-31 9-61-2-59-35zM48-53c0 20 12 33 32 33 41-3 63-29 60-74-43 2-92-5-92 41" id="aQ"/><path d="M143 0L79-87 56-68V0H24v-261h32v163l83-92h37l-77 82L181 0h-38" id="aR"/><path d="M84 4C-5 8 30-112 23-190h32v120c0 31 7 50 39 49 72-2 45-101 50-169h31l1 190h-30c-1-10 1-25-2-33-11 22-28 36-60 37" id="aS"/><path d="M24-231v-30h32v30H24zM-9 49c24 4 33-6 33-30v-209h32V24c2 40-23 58-65 49V49" id="aT"/><g id="h"><use transform="matrix(0.0561728395061728,0,0,0.0561728395061728,0,0)" xlink:href="#aQ"/><use transform="matrix(0.0561728395061728,0,0,0.0561728395061728,11.23456790123456,0)" xlink:href="#aR"/><use transform="matrix(0.0561728395061728,0,0,0.0561728395061728,21.345679012345663,0)" xlink:href="#aS"/><use transform="matrix(0.0561728395061728,0,0,0.0561728395061728,32.580246913580226,0)" xlink:href="#aT"/><use transform="matrix(0.0561728395061728,0,0,0.0561728395061728,37.01790123456787,0)" xlink:href="#aB"/><use transform="matrix(0.0561728395061728,0,0,0.0561728395061728,48.25246913580243,0)" xlink:href="#ay"/></g><path d="M108 0H70L1-190h34L89-25l56-165h34" id="aU"/><path d="M100-194c62-1 85 37 85 99 1 63-27 99-86 99S16-35 15-95c0-66 28-99 85-99zM99-20c44 1 53-31 53-75 0-43-8-75-51-75s-53 32-53 75 10 74 51 75" id="aV"/><g id="i"><use transform="matrix(0.0561728395061728,0,0,0.0561728395061728,0,0)" xlink:href="#aU"/><use transform="matrix(0.0561728395061728,0,0,0.0561728395061728,10.111111111111104,0)" xlink:href="#aV"/><use transform="matrix(0.0561728395061728,0,0,0.0561728395061728,21.345679012345663,0)" xlink:href="#aR"/><use transform="matrix(0.0561728395061728,0,0,0.0561728395061728,31.45679012345677,0)" xlink:href="#aT"/><use transform="matrix(0.0561728395061728,0,0,0.0561728395061728,35.89444444444442,0)" xlink:href="#aB"/><use transform="matrix(0.0561728395061728,0,0,0.0561728395061728,47.12901234567897,0)" xlink:href="#ay"/></g><path d="M135-143c-3-34-86-38-87 0 15 53 115 12 119 90S17 21 10-45l28-5c4 36 97 45 98 0-10-56-113-15-118-90-4-57 82-63 122-42 12 7 21 19 24 35" id="aW"/><g id="j"><use transform="matrix(0.0561728395061728,0,0,0.0561728395061728,0,0)" xlink:href="#ax"/><use transform="matrix(0.0561728395061728,0,0,0.0561728395061728,4.437654320987651,0)" xlink:href="#az"/><use transform="matrix(0.0561728395061728,0,0,0.0561728395061728,15.672222222222212,0)" xlink:href="#aW"/><use transform="matrix(0.0561728395061728,0,0,0.0561728395061728,25.783333333333314,0)" xlink:href="#aT"/><use transform="matrix(0.0561728395061728,0,0,0.0561728395061728,30.220987654320968,0)" xlink:href="#aB"/><use transform="matrix(0.0561728395061728,0,0,0.0561728395061728,41.45555555555552,0)" xlink:href="#ay"/></g><path d="M24 0v-261h32V0H24" id="aX"/><g id="k"><use transform="matrix(0.0561728395061728,0,0,0.0561728395061728,0,0)" xlink:href="#aX"/><use transform="matrix(0.0561728395061728,0,0,0.0561728395061728,4.437654320987651,0)" xlink:href="#aV"/><use transform="matrix(0.0561728395061728,0,0,0.0561728395061728,15.672222222222212,0)" xlink:href="#aR"/><use transform="matrix(0.0561728395061728,0,0,0.0561728395061728,25.783333333333314,0)" xlink:href="#aT"/><use transform="matrix(0.0561728395061728,0,0,0.0561728395061728,30.220987654320968,0)" xlink:href="#aB"/><use transform="matrix(0.0561728395061728,0,0,0.0561728395061728,41.45555555555552,0)" xlink:href="#ay"/></g><path d="M210-169c-67 3-38 105-44 169h-31v-121c0-29-5-50-35-48C34-165 62-65 56 0H25l-1-190h30c1 10-1 24 2 32 10-44 99-50 107 0 11-21 27-35 58-36 85-2 47 119 55 194h-31v-121c0-29-5-49-35-48" id="aY"/><g id="l"><use transform="matrix(0.0561728395061728,0,0,0.0561728395061728,0,0)" xlink:href="#az"/><use transform="matrix(0.0561728395061728,0,0,0.0561728395061728,11.23456790123456,0)" xlink:href="#aV"/><use transform="matrix(0.0561728395061728,0,0,0.0561728395061728,22.46913580246912,0)" xlink:href="#aY"/><use transform="matrix(0.0561728395061728,0,0,0.0561728395061728,39.264814814814784,0)" xlink:href="#aY"/><use transform="matrix(0.0561728395061728,0,0,0.0561728395061728,56.06049382716045,0)" xlink:href="#az"/><use transform="matrix(0.0561728395061728,0,0,0.0561728395061728,67.29506172839501,0)" xlink:href="#aV"/></g><g id="m"><use transform="matrix(0.0561728395061728,0,0,0.0561728395061728,0,0)" xlink:href="#aC"/><use transform="matrix(0.0561728395061728,0,0,0.0561728395061728,11.23456790123456,0)" xlink:href="#aB"/><use transform="matrix(0.0561728395061728,0,0,0.0561728395061728,22.46913580246912,0)" xlink:href="#az"/><use transform="matrix(0.0561728395061728,0,0,0.0561728395061728,33.70370370370368,0)" xlink:href="#aY"/><use transform="matrix(0.0561728395061728,0,0,0.0561728395061728,50.49938271604935,0)" xlink:href="#az"/><use transform="matrix(0.0561728395061728,0,0,0.0561728395061728,61.73395061728391,0)" xlink:href="#aV"/></g><g id="n"><use transform="matrix(0.0561728395061728,0,0,0.0561728395061728,0,0)" xlink:href="#ay"/><use transform="matrix(0.0561728395061728,0,0,0.0561728395061728,11.23456790123456,0)" xlink:href="#aQ"/><use transform="matrix(0.0561728395061728,0,0,0.0561728395061728,22.46913580246912,0)" xlink:href="#aA"/><use transform="matrix(0.0561728395061728,0,0,0.0561728395061728,28.086419753086396,0)" xlink:href="#aY"/><use transform="matrix(0.0561728395061728,0,0,0.0561728395061728,44.88209876543206,0)" xlink:href="#az"/><use transform="matrix(0.0561728395061728,0,0,0.0561728395061728,56.11666666666662,0)" xlink:href="#aV"/></g><g id="o"><use transform="matrix(0.0561728395061728,0,0,0.0561728395061728,0,0)" xlink:href="#aQ"/><use transform="matrix(0.0561728395061728,0,0,0.0561728395061728,11.23456790123456,0)" xlink:href="#aR"/><use transform="matrix(0.0561728395061728,0,0,0.0561728395061728,21.345679012345663,0)" xlink:href="#aS"/><use transform="matrix(0.0561728395061728,0,0,0.0561728395061728,32.580246913580226,0)" xlink:href="#aY"/><use transform="matrix(0.0561728395061728,0,0,0.0561728395061728,49.37592592592589,0)" xlink:href="#az"/><use transform="matrix(0.0561728395061728,0,0,0.0561728395061728,60.610493827160454,0)" xlink:href="#aV"/></g><g id="p"><use transform="matrix(0.0561728395061728,0,0,0.0561728395061728,0,0)" xlink:href="#ax"/><use transform="matrix(0.0561728395061728,0,0,0.0561728395061728,4.437654320987651,0)" xlink:href="#az"/><use transform="matrix(0.0561728395061728,0,0,0.0561728395061728,15.672222222222212,0)" xlink:href="#aW"/><use transform="matrix(0.0561728395061728,0,0,0.0561728395061728,25.783333333333314,0)" xlink:href="#aY"/><use transform="matrix(0.0561728395061728,0,0,0.0561728395061728,42.579012345678976,0)" xlink:href="#az"/><use transform="matrix(0.0561728395061728,0,0,0.0561728395061728,53.81358024691353,0)" xlink:href="#aV"/></g><g id="q"><use transform="matrix(0.0561728395061728,0,0,0.0561728395061728,0,0)" xlink:href="#aX"/><use transform="matrix(0.0561728395061728,0,0,0.0561728395061728,4.437654320987651,0)" xlink:href="#aV"/><use transform="matrix(0.0561728395061728,0,0,0.0561728395061728,15.672222222222212,0)" xlink:href="#aR"/><use transform="matrix(0.0561728395061728,0,0,0.0561728395061728,25.783333333333314,0)" xlink:href="#aY"/><use transform="matrix(0.0561728395061728,0,0,0.0561728395061728,42.579012345678976,0)" xlink:href="#az"/><use transform="matrix(0.0561728395061728,0,0,0.0561728395061728,53.81358024691353,0)" xlink:href="#aV"/></g><path fill="#333" d="M137 0h-34L2-248h35l83 218 83-218h36" id="aZ"/><path fill="#333" d="M135-143c-3-34-86-38-87 0 15 53 115 12 119 90S17 21 10-45l28-5c4 36 97 45 98 0-10-56-113-15-118-90-4-57 82-63 122-42 12 7 21 19 24 35" id="ba"/><g id="r"><use transform="matrix(0.06172839506172839,0,0,0.06172839506172839,0,0)" xlink:href="#aZ"/><use transform="matrix(0.06172839506172839,0,0,0.06172839506172839,14.012345679012345,0)" xlink:href="#aI"/><use transform="matrix(0.06172839506172839,0,0,0.06172839506172839,21.358024691358025,0)" xlink:href="#ba"/><use transform="matrix(0.06172839506172839,0,0,0.06172839506172839,32.46913580246914,0)" xlink:href="#aP"/><use transform="matrix(0.06172839506172839,0,0,0.06172839506172839,38.64197530864198,0)" xlink:href="#aw"/><use transform="matrix(0.06172839506172839,0,0,0.06172839506172839,50.98765432098766,0)" xlink:href="#aq"/><use transform="matrix(0.06172839506172839,0,0,0.06172839506172839,57.1604938271605,0)" xlink:href="#ar"/><use transform="matrix(0.06172839506172839,0,0,0.06172839506172839,75.61728395061729,0)" xlink:href="#as"/><use transform="matrix(0.06172839506172839,0,0,0.06172839506172839,87.96296296296298,0)" xlink:href="#at"/><use transform="matrix(0.06172839506172839,0,0,0.06172839506172839,100.30864197530866,0)" xlink:href="#au"/><use transform="matrix(0.06172839506172839,0,0,0.06172839506172839,105.1851851851852,0)" xlink:href="#av"/><use transform="matrix(0.06172839506172839,0,0,0.06172839506172839,116.29629629629632,0)" xlink:href="#as"/></g><g id="s"><use transform="matrix(0.06172839506172839,0,0,0.06172839506172839,0,0)" xlink:href="#au"/><use transform="matrix(0.06172839506172839,0,0,0.06172839506172839,4.876543209876543,0)" xlink:href="#aG"/></g><g id="t"><use transform="matrix(0.06172839506172839,0,0,0.06172839506172839,0,0)" xlink:href="#au"/><use transform="matrix(0.06172839506172839,0,0,0.06172839506172839,4.876543209876543,0)" xlink:href="#at"/><use transform="matrix(0.06172839506172839,0,0,0.06172839506172839,17.22222222222222,0)" xlink:href="#aP"/><use transform="matrix(0.06172839506172839,0,0,0.06172839506172839,23.39506172839506,0)" xlink:href="#as"/><use transform="matrix(0.06172839506172839,0,0,0.06172839506172839,35.74074074074074,0)" xlink:href="#aO"/><use transform="matrix(0.06172839506172839,0,0,0.06172839506172839,48.08641975308642,0)" xlink:href="#as"/><use transform="matrix(0.06172839506172839,0,0,0.06172839506172839,60.432098765432094,0)" xlink:href="#aI"/></g><path fill="#333" d="M9 0v-24l116-142H16v-24h144v24L44-24h123V0H9" id="bb"/><g id="u"><use transform="matrix(0.06172839506172839,0,0,0.06172839506172839,0,0)" xlink:href="#at"/><use transform="matrix(0.06172839506172839,0,0,0.06172839506172839,12.345679012345679,0)" xlink:href="#aw"/><use transform="matrix(0.06172839506172839,0,0,0.06172839506172839,24.691358024691358,0)" xlink:href="#bb"/><use transform="matrix(0.06172839506172839,0,0,0.06172839506172839,35.80246913580247,0)" xlink:href="#au"/><use transform="matrix(0.06172839506172839,0,0,0.06172839506172839,40.67901234567901,0)" xlink:href="#aH"/></g><g id="v"><use transform="matrix(0.06172839506172839,0,0,0.06172839506172839,0,0)" xlink:href="#aH"/><use transform="matrix(0.06172839506172839,0,0,0.06172839506172839,11.11111111111111,0)" xlink:href="#aw"/><use transform="matrix(0.06172839506172839,0,0,0.06172839506172839,23.45679012345679,0)" xlink:href="#aI"/><use transform="matrix(0.06172839506172839,0,0,0.06172839506172839,30.80246913580247,0)" xlink:href="#av"/><use transform="matrix(0.06172839506172839,0,0,0.06172839506172839,41.91358024691358,0)" xlink:href="#aJ"/><use transform="matrix(0.06172839506172839,0,0,0.06172839506172839,54.25925925925926,0)" xlink:href="#aw"/><use transform="matrix(0.06172839506172839,0,0,0.06172839506172839,66.60493827160494,0)" xlink:href="#aI"/><use transform="matrix(0.06172839506172839,0,0,0.06172839506172839,73.95061728395062,0)" xlink:href="#aK"/><use transform="matrix(0.06172839506172839,0,0,0.06172839506172839,81.2962962962963,0)" xlink:href="#aL"/><use transform="matrix(0.06172839506172839,0,0,0.06172839506172839,93.64197530864199,0)" xlink:href="#aM"/><use transform="matrix(0.06172839506172839,0,0,0.06172839506172839,105.98765432098767,0)" xlink:href="#aN"/></g><g id="w"><use transform="matrix(0.06790123456790123,0,0,0.06790123456790123,0,0)" xlink:href="#aZ"/><use transform="matrix(0.06790123456790123,0,0,0.06790123456790123,14.46296296296296,0)" xlink:href="#aw"/><use transform="matrix(0.06790123456790123,0,0,0.06790123456790123,28.04320987654321,0)" xlink:href="#aI"/><use transform="matrix(0.06790123456790123,0,0,0.06790123456790123,36.123456790123456,0)" xlink:href="#au"/><use transform="matrix(0.06790123456790123,0,0,0.06790123456790123,41.48765432098765,0)" xlink:href="#aF"/><use transform="matrix(0.06790123456790123,0,0,0.06790123456790123,46.85185185185185,0)" xlink:href="#aw"/><use transform="matrix(0.06790123456790123,0,0,0.06790123456790123,60.432098765432094,0)" xlink:href="#at"/><use transform="matrix(0.06790123456790123,0,0,0.06790123456790123,74.01234567901234,0)" xlink:href="#aP"/><use transform="matrix(0.06790123456790123,0,0,0.06790123456790123,80.80246913580247,0)" xlink:href="#aw"/><use transform="matrix(0.06790123456790123,0,0,0.06790123456790123,94.38271604938271,0)" xlink:href="#aq"/><use transform="matrix(0.06790123456790123,0,0,0.06790123456790123,101.17283950617283,0)" xlink:href="#ar"/><use transform="matrix(0.06790123456790123,0,0,0.06790123456790123,121.4753086419753,0)" xlink:href="#as"/><use transform="matrix(0.06790123456790123,0,0,0.06790123456790123,135.05555555555554,0)" xlink:href="#at"/><use transform="matrix(0.06790123456790123,0,0,0.06790123456790123,148.6358024691358,0)" xlink:href="#au"/><use transform="matrix(0.06790123456790123,0,0,0.06790123456790123,154,0)" xlink:href="#av"/><use transform="matrix(0.06790123456790123,0,0,0.06790123456790123,166.22222222222226,0)" xlink:href="#as"/></g><g id="x"><use transform="matrix(0.05,0,0,0.05,0,0)" xlink:href="#ax"/><use transform="matrix(0.05,0,0,0.05,3.95,0)" xlink:href="#ay"/></g><g id="y"><use transform="matrix(0.05,0,0,0.05,0,0)" xlink:href="#ax"/><use transform="matrix(0.05,0,0,0.05,3.95,0)" xlink:href="#az"/><use transform="matrix(0.05,0,0,0.05,13.949999999999998,0)" xlink:href="#aA"/><use transform="matrix(0.05,0,0,0.05,18.95,0)" xlink:href="#aB"/><use transform="matrix(0.05,0,0,0.05,28.950000000000003,0)" xlink:href="#aC"/><use transform="matrix(0.05,0,0,0.05,38.95,0)" xlink:href="#aB"/><use transform="matrix(0.05,0,0,0.05,48.95,0)" xlink:href="#aD"/></g><path d="M-5 72V49h209v23H-5" id="bc"/><path d="M115-194c53 0 69 39 70 98 0 66-23 100-70 100C84 3 66-7 56-30L54 0H23l1-261h32v101c10-23 28-34 59-34zm-8 174c40 0 45-34 45-75 0-40-5-75-45-74-42 0-51 32-51 76 0 43 10 73 51 73" id="bd"/><g id="z"><use transform="matrix(0.05,0,0,0.05,0,0)" xlink:href="#aD"/><use transform="matrix(0.05,0,0,0.05,5.95,0)" xlink:href="#aB"/><use transform="matrix(0.05,0,0,0.05,15.949999999999998,0)" xlink:href="#ay"/><use transform="matrix(0.05,0,0,0.05,25.950000000000003,0)" xlink:href="#az"/><use transform="matrix(0.05,0,0,0.05,35.95,0)" xlink:href="#ax"/><use transform="matrix(0.05,0,0,0.05,39.900000000000006,0)" xlink:href="#bc"/><use transform="matrix(0.05,0,0,0.05,49.900000000000006,0)" xlink:href="#bd"/><use transform="matrix(0.05,0,0,0.05,59.900000000000006,0)" xlink:href="#aD"/><use transform="matrix(0.05,0,0,0.05,65.85000000000001,0)" xlink:href="#aV"/><use transform="matrix(0.05,0,0,0.05,75.85000000000001,0)" xlink:href="#aT"/></g><g id="A"><use transform="matrix(0.06790123456790123,0,0,0.06790123456790123,0,0)" xlink:href="#at"/><use transform="matrix(0.06790123456790123,0,0,0.06790123456790123,13.580246913580247,0)" xlink:href="#aE"/><use transform="matrix(0.06790123456790123,0,0,0.06790123456790123,27.160493827160494,0)" xlink:href="#ar"/><use transform="matrix(0.06790123456790123,0,0,0.06790123456790123,47.46296296296296,0)" xlink:href="#aF"/><use transform="matrix(0.06790123456790123,0,0,0.06790123456790123,52.82716049382716,0)" xlink:href="#as"/><use transform="matrix(0.06790123456790123,0,0,0.06790123456790123,66.4074074074074,0)" xlink:href="#aG"/></g><g id="B"><use transform="matrix(0.06790123456790123,0,0,0.06790123456790123,0,0)" xlink:href="#aH"/><use transform="matrix(0.06790123456790123,0,0,0.06790123456790123,12.222222222222221,0)" xlink:href="#aw"/><use transform="matrix(0.06790123456790123,0,0,0.06790123456790123,25.80246913580247,0)" xlink:href="#aI"/><use transform="matrix(0.06790123456790123,0,0,0.06790123456790123,33.882716049382715,0)" xlink:href="#av"/><use transform="matrix(0.06790123456790123,0,0,0.06790123456790123,46.10493827160494,0)" xlink:href="#aJ"/><use transform="matrix(0.06790123456790123,0,0,0.06790123456790123,59.68518518518518,0)" xlink:href="#aw"/><use transform="matrix(0.06790123456790123,0,0,0.06790123456790123,73.26543209876543,0)" xlink:href="#aI"/><use transform="matrix(0.06790123456790123,0,0,0.06790123456790123,81.34567901234567,0)" xlink:href="#aK"/><use transform="matrix(0.06790123456790123,0,0,0.06790123456790123,89.42592592592592,0)" xlink:href="#aL"/><use transform="matrix(0.06790123456790123,0,0,0.06790123456790123,103.00617283950618,0)" xlink:href="#aM"/><use transform="matrix(0.06790123456790123,0,0,0.06790123456790123,116.58641975308643,0)" xlink:href="#aN"/></g><g id="C"><use transform="matrix(0.06790123456790123,0,0,0.06790123456790123,0,0)" xlink:href="#aO"/><use transform="matrix(0.06790123456790123,0,0,0.06790123456790123,13.580246913580247,0)" xlink:href="#as"/><use transform="matrix(0.06790123456790123,0,0,0.06790123456790123,27.160493827160494,0)" xlink:href="#at"/><use transform="matrix(0.06790123456790123,0,0,0.06790123456790123,40.74074074074074,0)" xlink:href="#aF"/><use transform="matrix(0.06790123456790123,0,0,0.06790123456790123,46.10493827160494,0)" xlink:href="#as"/><use transform="matrix(0.06790123456790123,0,0,0.06790123456790123,59.68518518518518,0)" xlink:href="#aG"/></g><g id="D"><use transform="matrix(0.06790123456790123,0,0,0.06790123456790123,0,0)" xlink:href="#aG"/><use transform="matrix(0.06790123456790123,0,0,0.06790123456790123,13.580246913580247,0)" xlink:href="#aw"/><use transform="matrix(0.06790123456790123,0,0,0.06790123456790123,27.160493827160494,0)" xlink:href="#aP"/><use transform="matrix(0.06790123456790123,0,0,0.06790123456790123,33.95061728395062,0)" xlink:href="#aF"/><use transform="matrix(0.06790123456790123,0,0,0.06790123456790123,39.314814814814824,0)" xlink:href="#as"/><use transform="matrix(0.06790123456790123,0,0,0.06790123456790123,52.89506172839506,0)" xlink:href="#aG"/></g><g id="E"><use transform="matrix(0.056172839506172814,0,0,0.056172839506172814,0,0)" xlink:href="#aQ"/><use transform="matrix(0.056172839506172814,0,0,0.056172839506172814,11.234567901234563,0)" xlink:href="#aR"/><use transform="matrix(0.056172839506172814,0,0,0.056172839506172814,21.34567901234567,0)" xlink:href="#aS"/><use transform="matrix(0.056172839506172814,0,0,0.056172839506172814,32.58024691358023,0)" xlink:href="#aT"/><use transform="matrix(0.056172839506172814,0,0,0.056172839506172814,37.01790123456789,0)" xlink:href="#aB"/><use transform="matrix(0.056172839506172814,0,0,0.056172839506172814,48.25246913580245,0)" xlink:href="#ay"/></g><g id="F"><use transform="matrix(0.056172839506172814,0,0,0.056172839506172814,0,0)" xlink:href="#aU"/><use transform="matrix(0.056172839506172814,0,0,0.056172839506172814,10.111111111111107,0)" xlink:href="#aV"/><use transform="matrix(0.056172839506172814,0,0,0.056172839506172814,21.34567901234567,0)" xlink:href="#aR"/><use transform="matrix(0.056172839506172814,0,0,0.056172839506172814,31.456790123456777,0)" xlink:href="#aT"/><use transform="matrix(0.056172839506172814,0,0,0.056172839506172814,35.89444444444443,0)" xlink:href="#aB"/><use transform="matrix(0.056172839506172814,0,0,0.056172839506172814,47.129012345678994,0)" xlink:href="#ay"/></g><g id="G"><use transform="matrix(0.056172839506172814,0,0,0.056172839506172814,0,0)" xlink:href="#ax"/><use transform="matrix(0.056172839506172814,0,0,0.056172839506172814,4.437654320987653,0)" xlink:href="#az"/><use transform="matrix(0.056172839506172814,0,0,0.056172839506172814,15.672222222222215,0)" xlink:href="#aW"/><use transform="matrix(0.056172839506172814,0,0,0.056172839506172814,25.783333333333324,0)" xlink:href="#aT"/><use transform="matrix(0.056172839506172814,0,0,0.056172839506172814,30.22098765432098,0)" xlink:href="#aB"/><use transform="matrix(0.056172839506172814,0,0,0.056172839506172814,41.45555555555554,0)" xlink:href="#ay"/></g><g id="H"><use transform="matrix(0.056172839506172814,0,0,0.056172839506172814,0,0)" xlink:href="#aX"/><use transform="matrix(0.056172839506172814,0,0,0.056172839506172814,4.437654320987653,0)" xlink:href="#aV"/><use transform="matrix(0.056172839506172814,0,0,0.056172839506172814,15.672222222222215,0)" xlink:href="#aR"/><use transform="matrix(0.056172839506172814,0,0,0.056172839506172814,25.783333333333324,0)" xlink:href="#aT"/><use transform="matrix(0.056172839506172814,0,0,0.056172839506172814,30.22098765432098,0)" xlink:href="#aB"/><use transform="matrix(0.056172839506172814,0,0,0.056172839506172814,41.45555555555554,0)" xlink:href="#ay"/></g><g id="I"><use transform="matrix(0.056172839506172814,0,0,0.056172839506172814,0,0)" xlink:href="#az"/><use transform="matrix(0.056172839506172814,0,0,0.056172839506172814,11.234567901234563,0)" xlink:href="#aV"/><use transform="matrix(0.056172839506172814,0,0,0.056172839506172814,22.469135802469125,0)" xlink:href="#aY"/><use transform="matrix(0.056172839506172814,0,0,0.056172839506172814,39.2648148148148,0)" xlink:href="#aY"/><use transform="matrix(0.056172839506172814,0,0,0.056172839506172814,56.06049382716047,0)" xlink:href="#az"/><use transform="matrix(0.056172839506172814,0,0,0.056172839506172814,67.29506172839504,0)" xlink:href="#aV"/></g><g id="J"><use transform="matrix(0.056172839506172814,0,0,0.056172839506172814,0,0)" xlink:href="#aC"/><use transform="matrix(0.056172839506172814,0,0,0.056172839506172814,11.234567901234563,0)" xlink:href="#aB"/><use transform="matrix(0.056172839506172814,0,0,0.056172839506172814,22.469135802469125,0)" xlink:href="#az"/><use transform="matrix(0.056172839506172814,0,0,0.056172839506172814,33.70370370370369,0)" xlink:href="#aY"/><use transform="matrix(0.056172839506172814,0,0,0.056172839506172814,50.49938271604936,0)" xlink:href="#az"/><use transform="matrix(0.056172839506172814,0,0,0.056172839506172814,61.733950617283924,0)" xlink:href="#aV"/></g><g id="K"><use transform="matrix(0.056172839506172814,0,0,0.056172839506172814,0,0)" xlink:href="#ay"/><use transform="matrix(0.056172839506172814,0,0,0.056172839506172814,11.234567901234563,0)" xlink:href="#aQ"/><use transform="matrix(0.056172839506172814,0,0,0.056172839506172814,22.469135802469125,0)" xlink:href="#aA"/><use transform="matrix(0.056172839506172814,0,0,0.056172839506172814,28.086419753086407,0)" xlink:href="#aY"/><use transform="matrix(0.056172839506172814,0,0,0.056172839506172814,44.882098765432076,0)" xlink:href="#az"/><use transform="matrix(0.056172839506172814,0,0,0.056172839506172814,56.11666666666664,0)" xlink:href="#aV"/></g><g id="L"><use transform="matrix(0.056172839506172814,0,0,0.056172839506172814,0,0)" xlink:href="#aQ"/><use transform="matrix(0.056172839506172814,0,0,0.056172839506172814,11.234567901234563,0)" xlink:href="#aR"/><use transform="matrix(0.056172839506172814,0,0,0.056172839506172814,21.34567901234567,0)" xlink:href="#aS"/><use transform="matrix(0.056172839506172814,0,0,0.056172839506172814,32.58024691358023,0)" xlink:href="#aY"/><use transform="matrix(0.056172839506172814,0,0,0.056172839506172814,49.375925925925905,0)" xlink:href="#az"/><use transform="matrix(0.056172839506172814,0,0,0.056172839506172814,60.61049382716047,0)" xlink:href="#aV"/></g><g id="M"><use transform="matrix(0.056172839506172814,0,0,0.056172839506172814,0,0)" xlink:href="#ax"/><use transform="matrix(0.056172839506172814,0,0,0.056172839506172814,4.437654320987653,0)" xlink:href="#az"/><use transform="matrix(0.056172839506172814,0,0,0.056172839506172814,15.672222222222215,0)" xlink:href="#aW"/><use transform="matrix(0.056172839506172814,0,0,0.056172839506172814,25.783333333333324,0)" xlink:href="#aY"/><use transform="matrix(0.056172839506172814,0,0,0.056172839506172814,42.579012345679,0)" xlink:href="#az"/><use transform="matrix(0.056172839506172814,0,0,0.056172839506172814,53.81358024691356,0)" xlink:href="#aV"/></g><g id="N"><use transform="matrix(0.056172839506172814,0,0,0.056172839506172814,0,0)" xlink:href="#aX"/><use transform="matrix(0.056172839506172814,0,0,0.056172839506172814,4.437654320987653,0)" xlink:href="#aV"/><use transform="matrix(0.056172839506172814,0,0,0.056172839506172814,15.672222222222215,0)" xlink:href="#aR"/><use transform="matrix(0.056172839506172814,0,0,0.056172839506172814,25.783333333333324,0)" xlink:href="#aY"/><use transform="matrix(0.056172839506172814,0,0,0.056172839506172814,42.579012345679,0)" xlink:href="#az"/><use transform="matrix(0.056172839506172814,0,0,0.056172839506172814,53.81358024691356,0)" xlink:href="#aV"/></g><path fill="#333" d="M143 4C61 4 22-44 18-125c-5-107 100-154 193-111 17 8 29 25 37 43l-32 9c-13-25-37-40-76-40-61 0-88 39-88 99 0 61 29 100 91 101 35 0 62-11 79-27v-45h-74v-28h105v86C228-13 192 4 143 4" id="be"/><path fill="#333" d="M24 0v-261h32V0H24" id="bf"/><g id="O"><use transform="matrix(0.06172839506172839,0,0,0.06172839506172839,0,0)" xlink:href="#be"/><use transform="matrix(0.06172839506172839,0,0,0.06172839506172839,17.28395061728395,0)" xlink:href="#bf"/><use transform="matrix(0.06172839506172839,0,0,0.06172839506172839,22.160493827160494,0)" xlink:href="#aw"/><use transform="matrix(0.06172839506172839,0,0,0.06172839506172839,34.50617283950617,0)" xlink:href="#aO"/><use transform="matrix(0.06172839506172839,0,0,0.06172839506172839,46.85185185185185,0)" xlink:href="#aE"/><use transform="matrix(0.06172839506172839,0,0,0.06172839506172839,59.197530864197525,0)" xlink:href="#bf"/></g><path fill="#333" d="M101-234c-31-9-42 10-38 44h38v23H63V0H32v-167H5v-23h27c-7-52 17-82 69-68v24" id="bg"/><g id="P"><use transform="matrix(0.06172839506172839,0,0,0.06172839506172839,0,0)" xlink:href="#au"/><use transform="matrix(0.06172839506172839,0,0,0.06172839506172839,4.876543209876543,0)" xlink:href="#at"/><use transform="matrix(0.06172839506172839,0,0,0.06172839506172839,17.22222222222222,0)" xlink:href="#bg"/><use transform="matrix(0.06172839506172839,0,0,0.06172839506172839,23.39506172839506,0)" xlink:href="#au"/><use transform="matrix(0.06172839506172839,0,0,0.06172839506172839,28.2716049382716,0)" xlink:href="#at"/><use transform="matrix(0.06172839506172839,0,0,0.06172839506172839,40.61728395061728,0)" xlink:href="#au"/><use transform="matrix(0.06172839506172839,0,0,0.06172839506172839,45.49382716049382,0)" xlink:href="#aP"/><use transform="matrix(0.06172839506172839,0,0,0.06172839506172839,51.666666666666664,0)" xlink:href="#au"/><use transform="matrix(0.06172839506172839,0,0,0.06172839506172839,56.54320987654321,0)" xlink:href="#aH"/></g><g id="Q"><use transform="matrix(0.06172839506172839,0,0,0.06172839506172839,0,0)" xlink:href="#ba"/><use transform="matrix(0.06172839506172839,0,0,0.06172839506172839,11.11111111111111,0)" xlink:href="#aH"/><use transform="matrix(0.06172839506172839,0,0,0.06172839506172839,22.22222222222222,0)" xlink:href="#aI"/><use transform="matrix(0.06172839506172839,0,0,0.06172839506172839,29.5679012345679,0)" xlink:href="#ba"/><use transform="matrix(0.06172839506172839,0,0,0.06172839506172839,40.67901234567901,0)" xlink:href="#as"/><use transform="matrix(0.06172839506172839,0,0,0.06172839506172839,53.02469135802469,0)" xlink:href="#at"/><use transform="matrix(0.06172839506172839,0,0,0.06172839506172839,65.37037037037037,0)" xlink:href="#au"/></g><path fill="#333" d="M115-194c53 0 69 39 70 98 0 66-23 100-70 100C84 3 66-7 56-30L54 0H23l1-261h32v101c10-23 28-34 59-34zm-8 174c40 0 45-34 45-75 0-40-5-75-45-74-42 0-51 32-51 76 0 43 10 73 51 73" id="bh"/><g id="R"><use transform="matrix(0.06172839506172839,0,0,0.06172839506172839,0,0)" xlink:href="#bh"/><use transform="matrix(0.06172839506172839,0,0,0.06172839506172839,12.345679012345679,0)" xlink:href="#aE"/><use transform="matrix(0.06172839506172839,0,0,0.06172839506172839,24.691358024691358,0)" xlink:href="#aE"/><use transform="matrix(0.06172839506172839,0,0,0.06172839506172839,37.03703703703704,0)" xlink:href="#bf"/><use transform="matrix(0.06172839506172839,0,0,0.06172839506172839,41.91358024691358,0)" xlink:href="#as"/><use transform="matrix(0.06172839506172839,0,0,0.06172839506172839,54.25925925925926,0)" xlink:href="#aw"/><use transform="matrix(0.06172839506172839,0,0,0.06172839506172839,66.60493827160494,0)" xlink:href="#at"/></g><path d="M115-194c55 1 70 41 70 98S169 2 115 4C84 4 66-9 55-30l1 105H24l-1-265h31l2 30c10-21 28-34 59-34zm-8 174c40 0 45-34 45-75s-6-73-45-74c-42 0-51 32-51 76 0 43 10 73 51 73" id="bi"/><g id="S"><use transform="matrix(0.05,0,0,0.05,0,0)" xlink:href="#bi"/><use transform="matrix(0.05,0,0,0.05,10,0)" xlink:href="#aD"/><use transform="matrix(0.05,0,0,0.05,15.949999999999998,0)" xlink:href="#ax"/><use transform="matrix(0.05,0,0,0.05,19.9,0)" xlink:href="#ay"/><use transform="matrix(0.05,0,0,0.05,29.899999999999995,0)" xlink:href="#aB"/><use transform="matrix(0.05,0,0,0.05,39.9,0)" xlink:href="#aU"/><use transform="matrix(0.05,0,0,0.05,48.9,0)" xlink:href="#bc"/><use transform="matrix(0.05,0,0,0.05,58.900000000000006,0)" xlink:href="#aY"/><use transform="matrix(0.05,0,0,0.05,73.85,0)" xlink:href="#aT"/></g><path d="M96-169c-40 0-48 33-48 73s9 75 48 75c24 0 41-14 43-38l32 2c-6 37-31 61-74 61-59 0-76-41-82-99-10-93 101-131 147-64 4 7 5 14 7 22l-32 3c-4-21-16-35-41-35" id="bj"/><path d="M106-169C34-169 62-67 57 0H25v-261h32l-1 103c12-21 28-36 61-36 89 0 53 116 60 194h-32v-121c2-32-8-49-39-48" id="bk"/><path d="M87 75C49 33 22-17 22-94c0-76 28-126 65-167h31c-38 41-64 92-64 168S80 34 118 75H87" id="bl"/><path d="M54-142c48-35 137-8 131 61C196 18 31 33 14-55l32-4c7 23 22 37 52 37 35-1 51-22 54-58 4-55-73-65-99-34H22l8-134h141v27H59" id="bm"/><path d="M101-251c68 0 85 55 85 127S166 4 100 4C33 4 14-52 14-124c0-73 17-127 87-127zm-1 229c47 0 54-49 54-102s-4-102-53-102c-51 0-55 48-55 102 0 53 5 102 54 102" id="bn"/><path d="M33-261c38 41 65 92 65 168S71 34 33 75H2C39 34 66-17 66-93S39-220 2-261h31" id="bo"/><g id="T"><use transform="matrix(0.05,0,0,0.05,0,0)" xlink:href="#aU"/><use transform="matrix(0.05,0,0,0.05,9,0)" xlink:href="#aQ"/><use transform="matrix(0.05,0,0,0.05,19,0)" xlink:href="#aD"/><use transform="matrix(0.05,0,0,0.05,24.95,0)" xlink:href="#bj"/><use transform="matrix(0.05,0,0,0.05,33.95,0)" xlink:href="#bk"/><use transform="matrix(0.05,0,0,0.05,43.95,0)" xlink:href="#aQ"/><use transform="matrix(0.05,0,0,0.05,53.95,0)" xlink:href="#aD"/><use transform="matrix(0.05,0,0,0.05,59.900000000000006,0)" xlink:href="#bl"/><use transform="matrix(0.05,0,0,0.05,65.85000000000001,0)" xlink:href="#bm"/><use transform="matrix(0.05,0,0,0.05,75.85000000000001,0)" xlink:href="#bn"/><use transform="matrix(0.05,0,0,0.05,85.85000000000001,0)" xlink:href="#bo"/></g><path d="M9 0v-24l116-142H16v-24h144v24L44-24h123V0H9" id="bp"/><g id="U"><use transform="matrix(0.05,0,0,0.05,0,0)" xlink:href="#bi"/><use transform="matrix(0.05,0,0,0.05,10,0)" xlink:href="#aD"/><use transform="matrix(0.05,0,0,0.05,15.949999999999998,0)" xlink:href="#ax"/><use transform="matrix(0.05,0,0,0.05,19.9,0)" xlink:href="#ay"/><use transform="matrix(0.05,0,0,0.05,29.899999999999995,0)" xlink:href="#aB"/><use transform="matrix(0.05,0,0,0.05,39.9,0)" xlink:href="#aU"/><use transform="matrix(0.05,0,0,0.05,48.9,0)" xlink:href="#bc"/><use transform="matrix(0.05,0,0,0.05,58.900000000000006,0)" xlink:href="#bp"/><use transform="matrix(0.05,0,0,0.05,67.9,0)" xlink:href="#aT"/></g><g id="V"><use transform="matrix(0.05,0,0,0.05,0,0)" xlink:href="#bi"/><use transform="matrix(0.05,0,0,0.05,10,0)" xlink:href="#aD"/><use transform="matrix(0.05,0,0,0.05,15.949999999999998,0)" xlink:href="#ax"/><use transform="matrix(0.05,0,0,0.05,19.9,0)" xlink:href="#ay"/><use transform="matrix(0.05,0,0,0.05,29.899999999999995,0)" xlink:href="#aB"/><use transform="matrix(0.05,0,0,0.05,39.9,0)" xlink:href="#aU"/><use transform="matrix(0.05,0,0,0.05,48.9,0)" xlink:href="#bc"/><use transform="matrix(0.05,0,0,0.05,58.900000000000006,0)" xlink:href="#aW"/><use transform="matrix(0.05,0,0,0.05,67.9,0)" xlink:href="#aT"/></g><g id="W"><use transform="matrix(0.05,0,0,0.05,0,0)" xlink:href="#bi"/><use transform="matrix(0.05,0,0,0.05,10,0)" xlink:href="#aD"/><use transform="matrix(0.05,0,0,0.05,15.949999999999998,0)" xlink:href="#ax"/><use transform="matrix(0.05,0,0,0.05,19.9,0)" xlink:href="#ay"/><use transform="matrix(0.05,0,0,0.05,29.899999999999995,0)" xlink:href="#aB"/><use transform="matrix(0.05,0,0,0.05,39.9,0)" xlink:href="#aU"/><use transform="matrix(0.05,0,0,0.05,48.9,0)" xlink:href="#bc"/><use transform="matrix(0.05,0,0,0.05,58.900000000000006,0)" xlink:href="#aY"/><use transform="matrix(0.05,0,0,0.05,73.85,0)" xlink:href="#aY"/></g><g id="X"><use transform="matrix(0.05,0,0,0.05,0,0)" xlink:href="#bi"/><use transform="matrix(0.05,0,0,0.05,10,0)" xlink:href="#aD"/><use transform="matrix(0.05,0,0,0.05,15.949999999999998,0)" xlink:href="#ax"/><use transform="matrix(0.05,0,0,0.05,19.9,0)" xlink:href="#ay"/><use transform="matrix(0.05,0,0,0.05,29.899999999999995,0)" xlink:href="#aB"/><use transform="matrix(0.05,0,0,0.05,39.9,0)" xlink:href="#aU"/><use transform="matrix(0.05,0,0,0.05,48.9,0)" xlink:href="#bc"/><use transform="matrix(0.05,0,0,0.05,58.900000000000006,0)" xlink:href="#bp"/><use transform="matrix(0.05,0,0,0.05,67.9,0)" xlink:href="#aY"/></g><g id="Y"><use transform="matrix(0.05,0,0,0.05,0,0)" xlink:href="#bi"/><use transform="matrix(0.05,0,0,0.05,10,0)" xlink:href="#aD"/><use transform="matrix(0.05,0,0,0.05,15.949999999999998,0)" xlink:href="#ax"/><use transform="matrix(0.05,0,0,0.05,19.9,0)" xlink:href="#ay"/><use transform="matrix(0.05,0,0,0.05,29.899999999999995,0)" xlink:href="#aB"/><use transform="matrix(0.05,0,0,0.05,39.9,0)" xlink:href="#aU"/><use transform="matrix(0.05,0,0,0.05,48.9,0)" xlink:href="#bc"/><use transform="matrix(0.05,0,0,0.05,58.900000000000006,0)" xlink:href="#aW"/><use transform="matrix(0.05,0,0,0.05,67.9,0)" xlink:href="#aY"/></g><g id="Z"><use transform="matrix(0.06172839506172839,0,0,0.06172839506172839,0,0)" xlink:href="#aZ"/><use transform="matrix(0.06172839506172839,0,0,0.06172839506172839,14.012345679012345,0)" xlink:href="#aI"/><use transform="matrix(0.06172839506172839,0,0,0.06172839506172839,21.358024691358025,0)" xlink:href="#as"/><use transform="matrix(0.06172839506172839,0,0,0.06172839506172839,33.7037037037037,0)" xlink:href="#ar"/><use transform="matrix(0.06172839506172839,0,0,0.06172839506172839,52.160493827160494,0)" xlink:href="#as"/><use transform="matrix(0.06172839506172839,0,0,0.06172839506172839,64.50617283950618,0)" xlink:href="#be"/><use transform="matrix(0.06172839506172839,0,0,0.06172839506172839,81.79012345679013,0)" xlink:href="#bf"/><use transform="matrix(0.06172839506172839,0,0,0.06172839506172839,86.66666666666667,0)" xlink:href="#aw"/><use transform="matrix(0.06172839506172839,0,0,0.06172839506172839,99.01234567901236,0)" xlink:href="#aO"/><use transform="matrix(0.06172839506172839,0,0,0.06172839506172839,111.35802469135804,0)" xlink:href="#aE"/><use transform="matrix(0.06172839506172839,0,0,0.06172839506172839,123.70370370370372,0)" xlink:href="#bf"/><use transform="matrix(0.06172839506172839,0,0,0.06172839506172839,128.58024691358025,0)" xlink:href="#aw"/></g><path fill="#333" d="M140-251c81 0 123 46 123 126C263-46 219 4 140 4 59 4 17-45 17-125s42-126 123-126zm0 227c63 0 89-41 89-101s-29-99-89-99c-61 0-89 39-89 99S79-25 140-24" id="bq"/><path fill="#333" d="M143 0L79-87 56-68V0H24v-261h32v163l83-92h37l-77 82L181 0h-38" id="br"/><g id="aa"><use transform="matrix(0.06172839506172839,0,0,0.06172839506172839,0,0)" xlink:href="#bq"/><use transform="matrix(0.06172839506172839,0,0,0.06172839506172839,17.28395061728395,0)" xlink:href="#bh"/><use transform="matrix(0.06172839506172839,0,0,0.06172839506172839,29.629629629629626,0)" xlink:href="#bf"/><use transform="matrix(0.06172839506172839,0,0,0.06172839506172839,34.50617283950617,0)" xlink:href="#au"/><use transform="matrix(0.06172839506172839,0,0,0.06172839506172839,39.382716049382715,0)" xlink:href="#br"/><use transform="matrix(0.06172839506172839,0,0,0.06172839506172839,50.49382716049382,0)" xlink:href="#be"/><use transform="matrix(0.06172839506172839,0,0,0.06172839506172839,67.77777777777777,0)" xlink:href="#bf"/><use transform="matrix(0.06172839506172839,0,0,0.06172839506172839,72.65432098765432,0)" xlink:href="#aw"/><use transform="matrix(0.06172839506172839,0,0,0.06172839506172839,85,0)" xlink:href="#aO"/><use transform="matrix(0.06172839506172839,0,0,0.06172839506172839,97.34567901234568,0)" xlink:href="#aE"/><use transform="matrix(0.06172839506172839,0,0,0.06172839506172839,109.69135802469137,0)" xlink:href="#bf"/><use transform="matrix(0.06172839506172839,0,0,0.06172839506172839,114.56790123456791,0)" xlink:href="#aw"/></g><path fill="#333" d="M27 0v-27h64v-190l-56 39v-29l58-41h29v221h61V0H27" id="bs"/><g id="ab"><use transform="matrix(0.06172839506172839,0,0,0.06172839506172839,0,0)" xlink:href="#aF"/><use transform="matrix(0.06172839506172839,0,0,0.06172839506172839,4.876543209876543,0)" xlink:href="#aG"/><use transform="matrix(0.06172839506172839,0,0,0.06172839506172839,17.22222222222222,0)" xlink:href="#bs"/></g><path fill="#333" d="M101-251c82-7 93 87 43 132L82-64C71-53 59-42 53-27h129V0H18c2-99 128-94 128-182 0-28-16-43-45-43s-46 15-49 41l-32-3c6-41 34-60 81-64" id="bt"/><g id="ac"><use transform="matrix(0.06172839506172839,0,0,0.06172839506172839,0,0)" xlink:href="#aF"/><use transform="matrix(0.06172839506172839,0,0,0.06172839506172839,4.876543209876543,0)" xlink:href="#aG"/><use transform="matrix(0.06172839506172839,0,0,0.06172839506172839,17.22222222222222,0)" xlink:href="#bt"/></g><path fill="#333" d="M126-127c33 6 58 20 58 59 0 88-139 92-164 29-3-8-5-16-6-25l32-3c6 27 21 44 54 44 32 0 52-15 52-46 0-38-36-46-79-43v-28c39 1 72-4 72-42 0-27-17-43-46-43-28 0-47 15-49 41l-32-3c6-42 35-63 81-64 48-1 79 21 79 65 0 36-21 52-52 59" id="bu"/><g id="ad"><use transform="matrix(0.06172839506172839,0,0,0.06172839506172839,0,0)" xlink:href="#aF"/><use transform="matrix(0.06172839506172839,0,0,0.06172839506172839,4.876543209876543,0)" xlink:href="#aG"/><use transform="matrix(0.06172839506172839,0,0,0.06172839506172839,17.22222222222222,0)" xlink:href="#bu"/></g><g id="ae"><use transform="matrix(0.06172839506172839,0,0,0.06172839506172839,0,0)" xlink:href="#ar"/><use transform="matrix(0.06172839506172839,0,0,0.06172839506172839,18.456790123456788,0)" xlink:href="#at"/><use transform="matrix(0.06172839506172839,0,0,0.06172839506172839,30.80246913580247,0)" xlink:href="#bs"/></g><g id="af"><use transform="matrix(0.06172839506172839,0,0,0.06172839506172839,0,0)" xlink:href="#ar"/><use transform="matrix(0.06172839506172839,0,0,0.06172839506172839,18.456790123456788,0)" xlink:href="#at"/><use transform="matrix(0.06172839506172839,0,0,0.06172839506172839,30.80246913580247,0)" xlink:href="#bt"/></g><g id="ag"><use transform="matrix(0.06172839506172839,0,0,0.06172839506172839,0,0)" xlink:href="#ar"/><use transform="matrix(0.06172839506172839,0,0,0.06172839506172839,18.456790123456788,0)" xlink:href="#at"/><use transform="matrix(0.06172839506172839,0,0,0.06172839506172839,30.80246913580247,0)" xlink:href="#bu"/></g><path fill="#333" d="M30-248c87 1 191-15 191 75 0 78-77 80-158 76V0H30v-248zm33 125c57 0 124 11 124-50 0-59-68-47-124-48v98" id="bv"/><g id="ah"><use transform="matrix(0.06172839506172839,0,0,0.06172839506172839,0,0)" xlink:href="#bv"/><use transform="matrix(0.06172839506172839,0,0,0.06172839506172839,14.814814814814813,0)" xlink:href="#aI"/><use transform="matrix(0.06172839506172839,0,0,0.06172839506172839,22.160493827160494,0)" xlink:href="#au"/><use transform="matrix(0.06172839506172839,0,0,0.06172839506172839,27.037037037037038,0)" xlink:href="#aG"/><use transform="matrix(0.06172839506172839,0,0,0.06172839506172839,39.382716049382715,0)" xlink:href="#as"/><use transform="matrix(0.06172839506172839,0,0,0.06172839506172839,51.72839506172839,0)" xlink:href="#aH"/></g><g id="ai"><use transform="matrix(0.06172839506172839,0,0,0.06172839506172839,0,0)" xlink:href="#aP"/><use transform="matrix(0.06172839506172839,0,0,0.06172839506172839,6.172839506172839,0)" xlink:href="#as"/><use transform="matrix(0.06172839506172839,0,0,0.06172839506172839,18.51851851851852,0)" xlink:href="#br"/><use transform="matrix(0.06172839506172839,0,0,0.06172839506172839,29.62962962962963,0)" xlink:href="#ba"/><use transform="matrix(0.06172839506172839,0,0,0.06172839506172839,40.74074074074074,0)" xlink:href="#aP"/></g><g id="aj"><use transform="matrix(0.06172839506172839,0,0,0.06172839506172839,0,0)" xlink:href="#bq"/><use transform="matrix(0.06172839506172839,0,0,0.06172839506172839,17.28395061728395,0)" xlink:href="#bh"/><use transform="matrix(0.06172839506172839,0,0,0.06172839506172839,29.629629629629626,0)" xlink:href="#bf"/><use transform="matrix(0.06172839506172839,0,0,0.06172839506172839,34.50617283950617,0)" xlink:href="#au"/><use transform="matrix(0.06172839506172839,0,0,0.06172839506172839,39.382716049382715,0)" xlink:href="#br"/><use transform="matrix(0.06172839506172839,0,0,0.06172839506172839,50.49382716049382,0)" xlink:href="#bv"/><use transform="matrix(0.06172839506172839,0,0,0.06172839506172839,65.30864197530863,0)" xlink:href="#aI"/><use transform="matrix(0.06172839506172839,0,0,0.06172839506172839,72.65432098765432,0)" xlink:href="#au"/><use transform="matrix(0.06172839506172839,0,0,0.06172839506172839,77.53086419753086,0)" xlink:href="#aG"/><use transform="matrix(0.06172839506172839,0,0,0.06172839506172839,89.87654320987654,0)" xlink:href="#as"/><use transform="matrix(0.06172839506172839,0,0,0.06172839506172839,102.22222222222223,0)" xlink:href="#aH"/><use transform="matrix(0.06172839506172839,0,0,0.06172839506172839,113.33333333333334,0)" xlink:href="#aw"/></g><g id="ak"><use transform="matrix(0.05,0,0,0.05,0,0)" xlink:href="#aU"/><use transform="matrix(0.05,0,0,0.05,9,0)" xlink:href="#ax"/><use transform="matrix(0.05,0,0,0.05,12.949999999999998,0)" xlink:href="#ay"/></g><g id="al"><use transform="matrix(0.05,0,0,0.05,0,0)" xlink:href="#bd"/><use transform="matrix(0.05,0,0,0.05,10,0)" xlink:href="#aV"/><use transform="matrix(0.05,0,0,0.05,20,0)" xlink:href="#aV"/><use transform="matrix(0.05,0,0,0.05,30,0)" xlink:href="#aX"/><use transform="matrix(0.05,0,0,0.05,33.95,0)" xlink:href="#aB"/><use transform="matrix(0.05,0,0,0.05,43.95,0)" xlink:href="#aQ"/><use transform="matrix(0.05,0,0,0.05,53.95,0)" xlink:href="#az"/></g><g id="am"><use transform="matrix(0.06172839506172839,0,0,0.06172839506172839,0,0)" xlink:href="#aF"/><use transform="matrix(0.06172839506172839,0,0,0.06172839506172839,4.876543209876543,0)" xlink:href="#as"/><use transform="matrix(0.06172839506172839,0,0,0.06172839506172839,17.22222222222222,0)" xlink:href="#aG"/><use transform="matrix(0.06172839506172839,0,0,0.06172839506172839,29.5679012345679,0)" xlink:href="#at"/><use transform="matrix(0.06172839506172839,0,0,0.06172839506172839,41.913580246913575,0)" xlink:href="#au"/><use transform="matrix(0.06172839506172839,0,0,0.06172839506172839,46.79012345679012,0)" xlink:href="#at"/><use transform="matrix(0.06172839506172839,0,0,0.06172839506172839,59.1358024691358,0)" xlink:href="#aw"/></g><g id="an"><use transform="matrix(0.06172839506172839,0,0,0.06172839506172839,0,0)" xlink:href="#aI"/><use transform="matrix(0.06172839506172839,0,0,0.06172839506172839,7.345679012345679,0)" xlink:href="#aE"/><use transform="matrix(0.06172839506172839,0,0,0.06172839506172839,19.691358024691358,0)" xlink:href="#aG"/></g><path fill="#333" d="M115-194c55 1 70 41 70 98S169 2 115 4C84 4 66-9 55-30l1 105H24l-1-265h31l2 30c10-21 28-34 59-34zm-8 174c40 0 45-34 45-75s-6-73-45-74c-42 0-51 32-51 76 0 43 10 73 51 73" id="bw"/><g id="ao"><use transform="matrix(0.06172839506172839,0,0,0.06172839506172839,0,0)" xlink:href="#bw"/><use transform="matrix(0.06172839506172839,0,0,0.06172839506172839,12.345679012345679,0)" xlink:href="#aw"/><use transform="matrix(0.06172839506172839,0,0,0.06172839506172839,24.691358024691358,0)" xlink:href="#aG"/><use transform="matrix(0.06172839506172839,0,0,0.06172839506172839,37.03703703703704,0)" xlink:href="#as"/><use transform="matrix(0.06172839506172839,0,0,0.06172839506172839,49.382716049382715,0)" xlink:href="#bb"/></g><g id="ap"><use transform="matrix(0.05,0,0,0.05,0,0)" xlink:href="#aA"/><use transform="matrix(0.05,0,0,0.05,5,0)" xlink:href="#aB"/><use transform="matrix(0.05,0,0,0.05,15,0)" xlink:href="#aR"/><use transform="matrix(0.05,0,0,0.05,24,0)" xlink:href="#aW"/><use transform="matrix(0.05,0,0,0.05,33,0)" xlink:href="#aA"/></g></defs></g></svg>